<?xml version="1.0"?>
<svg xmlns="http://www.w3.org/2000/svg" viewBox="0 0 512 512" width="512" height="512"><g id="Outline"><path d="M488,152H448a7.924,7.924,0,0,0-1.131.08L391.7,159.962l-69.073-4.6L320,150.111V104a32.036,32.036,0,0,0-32-32V88a16.019,16.019,0,0,1,16,16v48a7.958,7.958,0,0,0,.3,2.139l-13.343-.889A15.868,15.868,0,0,1,288,144V104a8,8,0,0,0-5.474-7.591l-.751-.25a40.023,40.023,0,0,0-5.114-19.543c-7.245-13.044-27.045-31.309-55.32-17.015a32.078,32.078,0,0,0-15.833,18.868l-.426,1.337L194.487,89.883a8,8,0,0,0-.292,11.3l3.555,3.748-2.208,6.914a15.99,15.99,0,0,0,10.378,20.115l3.03.966c.694,3.644,1.889,9.677,3.944,19.8l-92.636,7.227L65.131,152.08A8.072,8.072,0,0,0,64,152H24a8,8,0,0,0-8,8v24a8,8,0,0,0,4.422,7.155l16,8A7.994,7.994,0,0,0,40,200H63.432l55.437,7.92c.374.053,57.648.08,57.648.08A29.638,29.638,0,0,0,192,228.938V272H97.069A48.313,48.313,0,0,0,48.9,324.016l6.841,88.929-4.062,4.063-15.851,5.283A17.3,17.3,0,0,0,41.3,456H86.7A17.318,17.318,0,0,0,104,438.7V329.062l117.47,14.684,70.645,39.247c.469.261,140.91,44.668,140.91,44.668l-6.682,6.682A8,8,0,0,0,424,440v8a8,8,0,0,0,8,8h48a8,8,0,0,0,8-8V408a8,8,0,0,0-4.954-7.4l-99.284-40.882-6.092,14.8,20.764,8.549-3.179,15.889-96.076-30.34-71.294-39.607a7.985,7.985,0,0,0-2.893-.945l-128-16A8,8,0,0,0,88,320v56H68.947l-4.093-53.211A32.311,32.311,0,0,1,97.069,288H200a8,8,0,0,0,8-8h51.056l13.789,27.578A8.005,8.005,0,0,0,275.2,310.4l64,48a7.965,7.965,0,0,0,1.754,1l17.5,7.207,6.092-14.794-16.563-6.821-61.675-46.256-14.763-29.525L264.246,240l6.45-25.8,18.6-6.2H392a7.924,7.924,0,0,0,1.131-.08L448.568,200H472a7.994,7.994,0,0,0,3.578-.845l16-8A8,8,0,0,0,496,184V160A8,8,0,0,0,488,152ZM413.509,389.273,472,413.357V440H443.313l10.344-10.343a8,8,0,0,0-3.248-13.286L410.6,403.8ZM88,392v46.7a1.3,1.3,0,0,1-1.3,1.3H41.3a1.3,1.3,0,0,1-.41-2.529c5.813-1.938,12.135-2.714,17.578-5.669,4.6-2.5,12.628-9.2,13.388-14.707.282-2.044-1.438-25.1-1.677-25.1ZM272,124.732V144a32.116,32.116,0,0,0,1.167,8.579l-11.718-.385-5-12.326A61.446,61.446,0,0,0,272,124.732ZM254.978,211.1,251.754,224H208a8,8,0,0,0-4.422-7.155l-3.92-1.96c-8.748-4.374-10.239-16.957-2.45-23.2l.132-.11,19.477-16.331a13.955,13.955,0,0,0,4.73,4.855,14.941,14.941,0,0,0,7.955,2.154,29.176,29.176,0,0,0,12-3.107A40.8,40.8,0,0,0,254.978,211.1Zm-31.04-85.052c.026.244.027.421.03.524C223.963,126.4,223.954,126.225,223.938,126.052Zm38.734-41.668c7.584,13.655.367,28.239-9.335,37.48l-.413-5.314,1.837-.969a16.657,16.657,0,0,0,8.8-13.627,16.35,16.35,0,0,0-5.415-13.282,16.135,16.135,0,0,0-8.623-4l-4.7-13.882C255.409,72.53,261.267,81.852,262.672,84.384ZM212.615,97.355,211.3,95.971l6.291-5.984c1.88-1.787,2.4-4.276,3.157-6.65a15.983,15.983,0,0,1,7.81-9.457c.121-.062.238-.11.358-.169l7.4,21.859a8,8,0,0,0,8.951,5.316l2.01-.35c.063-.012.4-.055.456.27.059.341-.271.536-.43.619l-6.493,3.421a8,8,0,0,0-4.248,7.7s1.911,24.583,1.917,24.582a7.971,7.971,0,0,0,.557,2.389l7.252,17.874c-9.5,7.006-14.242,8.483-16.03,8.776a15.215,15.215,0,0,1,.123-4.607,7.986,7.986,0,0,0-.005-3.16c-2.891-14.144-6.1-30.148-6.447-32.419a8,8,0,0,0-5.531-6.832l-7.619-2.423,3.65-11.43A8,8,0,0,0,212.615,97.355Zm-25.494,81.9a30.019,30.019,0,0,0-8.162,10.3c-.386.8-.728,1.614-1.041,2.445h-57.35S64.378,184,64,184H41.889L32,179.056V168H63.432l55.437,7.92c.581.084,79.392-6,79.392-6ZM208,264V240h40c0,.652,5.754,24,5.754,24Zm272-84.944L470.111,184H448c-.378,0-56.568,8-56.568,8H288a8.027,8.027,0,0,0-2.53.41l-19.928,6.643a24.707,24.707,0,0,1-5.487-29.275l.8-1.594,26.748.878S392.581,176,393.131,175.92L448.568,168H480Z"/></g></svg>
