<svg width="20" height="21" viewBox="0 0 20 21" fill="none" xmlns="http://www.w3.org/2000/svg">
<rect x="3.1579" y="1.06708" width="13.6842" height="12.6316" fill="white"/>
<rect x="16.8421" y="3.17236" width="3.15789" height="9.47368" fill="white"/>
<rect x="1.05263" y="3.17236" width="3.15789" height="9.47368" fill="white"/>
<rect x="5.26315" y="7.38287" width="3.15789" height="9.47368" fill="white"/>
<rect x="3.02405" width="13.8144" height="1.51203" fill="#101024"/>
<rect x="9.20963" y="13.8144" width="7.62886" height="1.51203" fill="#101024"/>
<rect x="3.02405" y="13.8144" width="3.02405" height="1.51203" fill="#101024"/>
<rect x="1.51202" y="1.51202" width="1.51203" height="1.51203" fill="#101024"/>
<rect x="16.8385" y="1.58075" width="1.51203" height="1.51203" fill="#101024"/>
<rect x="16.8385" y="12.3024" width="1.51203" height="1.51203" fill="#101024"/>
<rect x="1.51202" y="12.3024" width="1.51203" height="1.51203" fill="#101024"/>
<rect x="7.69759" y="15.3265" width="1.51203" height="1.51203" fill="#101024"/>
<rect x="6.11682" y="16.976" width="1.51203" height="1.51203" fill="#101024"/>
<rect x="4.53609" y="15.3265" width="1.51203" height="4.81099" fill="#101024"/>
<rect y="3.02405" width="1.51203" height="9.27835" fill="#101024"/>
<rect x="18.488" y="3.02405" width="1.51203" height="9.27835" fill="#101024"/>
</svg>

