<svg width="213" height="85" viewBox="0 0 213 85" fill="none" xmlns="http://www.w3.org/2000/svg">
<path d="M49.336 54H44.912V18.944H50.456L56.448 40.672L62.44 18.944H67.984V54H63.56V28.352L58.744 46.384H54.152L49.336 28.408V54ZM77.371 61.728H74.011V57.696H76.307C77.9123 57.696 78.883 57.08 79.219 55.848L79.779 53.552H77.035L71.323 26.672H76.475L80.619 49.576L84.483 26.672H89.579L83.811 56.632C82.9897 60.0293 80.843 61.728 77.371 61.728ZM101.021 18.944H112.501C115.973 18.944 117.709 20.5867 117.709 23.872V35.52C117.709 38.8053 115.973 40.448 112.501 40.448H106.061V54H101.021V18.944ZM112.669 34.736V24.656C112.669 23.984 112.557 23.5547 112.333 23.368C112.109 23.144 111.661 23.032 110.989 23.032H106.061V36.416H110.989C111.661 36.416 112.109 36.304 112.333 36.08C112.557 35.856 112.669 35.408 112.669 34.736ZM121.625 21.464V16.48H126.889V21.464H121.625ZM126.777 54H121.737V26.672H126.777V54ZM141.323 40L148.155 54H142.835L138.747 44.536L134.771 54H129.507L136.227 40.056L129.899 26.672H135.275L138.803 35.632L142.275 26.672H147.539L141.323 40ZM155.927 26.672H161.415C164.925 26.672 166.679 28.3333 166.679 31.656V41.904H155.647V48.4C155.647 49.0347 155.759 49.464 155.983 49.688C156.207 49.912 156.655 50.024 157.327 50.024H159.903C160.575 50.024 161.023 49.912 161.247 49.688C161.471 49.464 161.583 49.016 161.583 48.344V46.104H166.511V49.072C166.511 52.3573 164.775 54 161.303 54H155.927C152.455 54 150.719 52.3573 150.719 49.072V31.656C150.719 28.3333 152.455 26.672 155.927 26.672ZM155.647 38.208H161.695V32.272C161.695 31.6373 161.583 31.208 161.359 30.984C161.173 30.76 160.743 30.648 160.071 30.648H157.327C156.655 30.648 156.207 30.76 155.983 30.984C155.759 31.208 155.647 31.6373 155.647 32.272V38.208ZM176.051 54H171.011V16.536H176.051V54ZM190.092 48.512V43.976C190.092 43.304 189.98 42.8747 189.756 42.688C189.532 42.464 189.084 42.352 188.412 42.352H185.556C182.084 42.352 180.348 40.7093 180.348 37.424V31.656C180.348 28.3333 182.084 26.672 185.556 26.672H189.644C193.153 26.672 194.908 28.3333 194.908 31.656V34.288H189.98V32.16C189.98 31.488 189.868 31.0587 189.644 30.872C189.42 30.648 188.972 30.536 188.3 30.536H186.956C186.284 30.536 185.836 30.648 185.612 30.872C185.388 31.0587 185.276 31.488 185.276 32.16V36.864C185.276 37.536 185.388 37.984 185.612 38.208C185.836 38.3947 186.284 38.488 186.956 38.488H189.868C193.303 38.488 195.02 40.1493 195.02 43.472V49.072C195.02 52.3573 193.284 54 189.812 54H185.668C182.196 54 180.46 52.3573 180.46 49.072V46.384H185.388V48.512C185.388 49.184 185.5 49.632 185.724 49.856C185.948 50.0427 186.396 50.136 187.068 50.136H188.412C189.084 50.136 189.532 50.0427 189.756 49.856C189.98 49.632 190.092 49.184 190.092 48.512Z" fill="#101024"/>
<rect x="122" y="16" width="5" height="5" fill="#83E0BA"/>
<path d="M45.2492 80V65.42H48.8672C49.7432 65.42 50.4392 65.582 50.9552 65.906C51.4832 66.218 51.8672 66.674 52.1072 67.274C52.3472 67.874 52.4672 68.6 52.4672 69.452C52.4672 70.22 52.3292 70.886 52.0532 71.45C51.7892 72.014 51.3932 72.452 50.8652 72.764C50.3372 73.064 49.6772 73.214 48.8852 73.214H47.2832V80H45.2492ZM47.2832 71.756H48.2192C48.8072 71.756 49.2692 71.69 49.6052 71.558C49.9412 71.426 50.1812 71.198 50.3252 70.874C50.4692 70.538 50.5412 70.07 50.5412 69.47C50.5412 68.774 50.4872 68.24 50.3792 67.868C50.2832 67.496 50.0732 67.238 49.7492 67.094C49.4252 66.95 48.9212 66.878 48.2372 66.878H47.2832V71.756ZM53.8617 80V69.596H55.7877V80H53.8617ZM53.8617 68.048V66.032H55.7877V68.048H53.8617ZM57.039 80L59.379 74.528L57.093 69.596H58.929L60.459 72.89L61.809 69.596H63.699L61.323 74.762L63.735 80H61.899L60.261 76.472L58.857 80H57.039ZM67.725 80.144C66.909 80.144 66.279 79.988 65.835 79.676C65.391 79.352 65.079 78.884 64.899 78.272C64.731 77.648 64.647 76.886 64.647 75.986V73.61C64.647 72.686 64.737 71.918 64.917 71.306C65.097 70.694 65.409 70.232 65.853 69.92C66.309 69.608 66.933 69.452 67.725 69.452C68.601 69.452 69.243 69.632 69.651 69.992C70.071 70.352 70.347 70.874 70.479 71.558C70.611 72.23 70.677 73.04 70.677 73.988V74.834H66.573V76.922C66.573 77.342 66.609 77.684 66.681 77.948C66.765 78.212 66.891 78.41 67.059 78.542C67.239 78.662 67.467 78.722 67.743 78.722C68.031 78.722 68.247 78.656 68.391 78.524C68.547 78.38 68.649 78.182 68.697 77.93C68.757 77.666 68.787 77.36 68.787 77.012V76.382H70.659V76.778C70.659 77.822 70.437 78.644 69.993 79.244C69.549 79.844 68.793 80.144 67.725 80.144ZM66.573 73.79H68.787V72.854C68.787 72.422 68.763 72.062 68.715 71.774C68.667 71.474 68.565 71.252 68.409 71.108C68.265 70.952 68.031 70.874 67.707 70.874C67.395 70.874 67.155 70.946 66.987 71.09C66.831 71.234 66.723 71.48 66.663 71.828C66.603 72.164 66.573 72.632 66.573 73.232V73.79ZM72.6012 80V65.42H74.5272V80H72.6012ZM80.0178 80L83.1138 65.42H85.0758L88.1898 80H86.2638L85.5978 76.328H82.6278L81.9258 80H80.0178ZM82.8978 74.87H85.3278L84.1038 68.3L82.8978 74.87ZM89.5612 80V69.596H91.4872V71.072C91.8712 70.436 92.2552 70.01 92.6392 69.794C93.0232 69.578 93.4072 69.47 93.7912 69.47C93.8392 69.47 93.8812 69.47 93.9172 69.47C93.9652 69.47 94.0252 69.476 94.0972 69.488V71.612C93.9532 71.552 93.7852 71.504 93.5932 71.468C93.4132 71.42 93.2272 71.396 93.0352 71.396C92.7352 71.396 92.4592 71.468 92.2072 71.612C91.9672 71.744 91.7272 72.008 91.4872 72.404V80H89.5612ZM98.0624 80.144C97.5224 80.144 97.0844 80.042 96.7484 79.838C96.4244 79.634 96.1844 79.346 96.0284 78.974C95.8844 78.602 95.8124 78.164 95.8124 77.66V70.874H94.7144V69.596H95.8124V66.554H97.7384V69.596H99.4124V70.874H97.7384V77.534C97.7384 77.942 97.8044 78.236 97.9364 78.416C98.0684 78.584 98.3204 78.668 98.6924 78.668C98.7884 78.668 98.8964 78.662 99.0164 78.65C99.1484 78.638 99.2744 78.626 99.3944 78.614V80.036C99.1544 80.072 98.9324 80.096 98.7284 80.108C98.5244 80.132 98.3024 80.144 98.0624 80.144ZM108.757 80.162C107.725 80.162 106.921 79.946 106.345 79.514C105.781 79.082 105.385 78.5 105.157 77.768C104.941 77.036 104.833 76.22 104.833 75.32V70.172C104.833 69.188 104.941 68.33 105.157 67.598C105.385 66.866 105.781 66.302 106.345 65.906C106.921 65.498 107.725 65.294 108.757 65.294C109.669 65.294 110.389 65.462 110.917 65.798C111.457 66.134 111.841 66.614 112.069 67.238C112.309 67.862 112.429 68.612 112.429 69.488V70.64H110.503V69.614C110.503 69.074 110.473 68.6 110.413 68.192C110.365 67.772 110.221 67.448 109.981 67.22C109.741 66.992 109.339 66.878 108.775 66.878C108.199 66.878 107.779 67.004 107.515 67.256C107.251 67.496 107.077 67.844 106.993 68.3C106.921 68.744 106.885 69.266 106.885 69.866V75.644C106.885 76.376 106.945 76.958 107.065 77.39C107.185 77.81 107.383 78.11 107.659 78.29C107.935 78.47 108.307 78.56 108.775 78.56C109.327 78.56 109.723 78.44 109.963 78.2C110.203 77.948 110.353 77.606 110.413 77.174C110.473 76.742 110.503 76.238 110.503 75.662V74.582H112.429V75.662C112.429 76.55 112.321 77.336 112.105 78.02C111.889 78.692 111.517 79.22 110.989 79.604C110.461 79.976 109.717 80.162 108.757 80.162ZM117.066 80.144C116.298 80.144 115.692 79.988 115.248 79.676C114.804 79.364 114.486 78.92 114.294 78.344C114.114 77.768 114.024 77.09 114.024 76.31V73.286C114.024 72.506 114.114 71.828 114.294 71.252C114.486 70.676 114.804 70.232 115.248 69.92C115.692 69.608 116.298 69.452 117.066 69.452C117.834 69.452 118.434 69.608 118.866 69.92C119.31 70.232 119.622 70.676 119.802 71.252C119.994 71.828 120.09 72.506 120.09 73.286V76.31C120.09 77.09 119.994 77.768 119.802 78.344C119.622 78.92 119.31 79.364 118.866 79.676C118.434 79.988 117.834 80.144 117.066 80.144ZM117.066 78.722C117.438 78.722 117.696 78.614 117.84 78.398C117.996 78.182 118.086 77.9 118.11 77.552C118.146 77.192 118.164 76.82 118.164 76.436V73.178C118.164 72.782 118.146 72.41 118.11 72.062C118.086 71.714 117.996 71.432 117.84 71.216C117.696 70.988 117.438 70.874 117.066 70.874C116.694 70.874 116.43 70.988 116.274 71.216C116.118 71.432 116.022 71.714 115.986 72.062C115.962 72.41 115.95 72.782 115.95 73.178V76.436C115.95 76.82 115.962 77.192 115.986 77.552C116.022 77.9 116.118 78.182 116.274 78.398C116.43 78.614 116.694 78.722 117.066 78.722ZM121.851 80V69.596H123.633V70.586C123.981 70.19 124.365 69.896 124.785 69.704C125.205 69.512 125.637 69.416 126.081 69.416C126.465 69.416 126.807 69.512 127.107 69.704C127.419 69.896 127.641 70.238 127.773 70.73C128.145 70.274 128.547 69.944 128.979 69.74C129.423 69.524 129.885 69.416 130.365 69.416C130.701 69.416 131.007 69.5 131.283 69.668C131.559 69.824 131.781 70.082 131.949 70.442C132.117 70.79 132.201 71.252 132.201 71.828V80H130.437V71.954C130.437 71.45 130.353 71.114 130.185 70.946C130.029 70.766 129.813 70.676 129.537 70.676C129.273 70.676 128.997 70.754 128.709 70.91C128.421 71.054 128.157 71.258 127.917 71.522C127.917 71.57 127.917 71.618 127.917 71.666C127.917 71.714 127.917 71.768 127.917 71.828V80H126.153V71.954C126.153 71.45 126.069 71.114 125.901 70.946C125.745 70.766 125.529 70.676 125.253 70.676C124.989 70.676 124.713 70.754 124.425 70.91C124.149 71.054 123.885 71.258 123.633 71.522V80H121.851ZM134.085 80V69.596H135.867V70.586C136.215 70.19 136.599 69.896 137.019 69.704C137.439 69.512 137.871 69.416 138.315 69.416C138.699 69.416 139.041 69.512 139.341 69.704C139.653 69.896 139.875 70.238 140.007 70.73C140.379 70.274 140.781 69.944 141.213 69.74C141.657 69.524 142.119 69.416 142.599 69.416C142.935 69.416 143.241 69.5 143.517 69.668C143.793 69.824 144.015 70.082 144.183 70.442C144.351 70.79 144.435 71.252 144.435 71.828V80H142.671V71.954C142.671 71.45 142.587 71.114 142.419 70.946C142.263 70.766 142.047 70.676 141.771 70.676C141.507 70.676 141.231 70.754 140.943 70.91C140.655 71.054 140.391 71.258 140.151 71.522C140.151 71.57 140.151 71.618 140.151 71.666C140.151 71.714 140.151 71.768 140.151 71.828V80H138.387V71.954C138.387 71.45 138.303 71.114 138.135 70.946C137.979 70.766 137.763 70.676 137.487 70.676C137.223 70.676 136.947 70.754 136.659 70.91C136.383 71.054 136.119 71.258 135.867 71.522V80H134.085ZM147.814 80.144C147.406 80.144 147.088 80.036 146.86 79.82C146.632 79.604 146.47 79.334 146.374 79.01C146.29 78.686 146.248 78.356 146.248 78.02V69.596H148.174V77.444C148.174 77.816 148.228 78.11 148.336 78.326C148.444 78.53 148.666 78.632 149.002 78.632C149.218 78.632 149.44 78.572 149.668 78.452C149.908 78.32 150.136 78.164 150.352 77.984V69.596H152.278V80H150.352V78.974C150.016 79.298 149.632 79.574 149.2 79.802C148.78 80.03 148.318 80.144 147.814 80.144ZM154.247 80V69.596H156.173V70.622C156.521 70.298 156.905 70.022 157.325 69.794C157.745 69.566 158.207 69.452 158.711 69.452C159.131 69.452 159.449 69.56 159.665 69.776C159.893 69.992 160.049 70.262 160.133 70.586C160.229 70.91 160.277 71.24 160.277 71.576V80H158.351V72.134C158.351 71.762 158.297 71.474 158.189 71.27C158.081 71.066 157.859 70.964 157.523 70.964C157.307 70.964 157.079 71.03 156.839 71.162C156.611 71.282 156.389 71.432 156.173 71.612V80H154.247ZM162.284 80V69.596H164.21V80H162.284ZM162.284 68.048V66.032H164.21V68.048H162.284ZM169.043 80.144C168.503 80.144 168.065 80.042 167.729 79.838C167.405 79.634 167.165 79.346 167.009 78.974C166.865 78.602 166.793 78.164 166.793 77.66V70.874H165.695V69.596H166.793V66.554H168.719V69.596H170.393V70.874H168.719V77.534C168.719 77.942 168.785 78.236 168.917 78.416C169.049 78.584 169.301 78.668 169.673 78.668C169.769 78.668 169.877 78.662 169.997 78.65C170.129 78.638 170.255 78.626 170.375 78.614V80.036C170.135 80.072 169.913 80.096 169.709 80.108C169.505 80.132 169.283 80.144 169.043 80.144ZM171.646 82.61V81.134C172.114 81.134 172.486 81.11 172.762 81.062C173.038 81.026 173.236 80.948 173.356 80.828C173.476 80.72 173.536 80.564 173.536 80.36C173.536 80.252 173.494 80.012 173.41 79.64C173.326 79.268 173.236 78.872 173.14 78.452L171.052 69.596H172.996L174.4 77.372L175.75 69.596H177.694L175.21 80.576C175.102 81.08 174.904 81.476 174.616 81.764C174.328 82.064 173.956 82.28 173.5 82.412C173.056 82.544 172.516 82.61 171.88 82.61H171.646Z" fill="#ADADAD"/>
<rect y="23" width="32" height="32" fill="#83E0BA"/>
</svg>

