<svg width="38" height="39" viewBox="0 0 38 39" fill="none" xmlns="http://www.w3.org/2000/svg">
<rect y="12.932" width="38" height="13.1309" fill="#83E0BA"/>
<rect x="2.28796" y="8.05762" width="33.5236" height="4.87435" fill="#83E0BA"/>
<rect x="35.8115" y="30.9373" width="33.5236" height="4.87435" transform="rotate(180 35.8115 30.9373)" fill="#83E0BA"/>
<rect x="4.47644" y="5.3717" width="28.2513" height="2.68586" fill="#83E0BA"/>
<rect x="33.623" y="33.623" width="28.2513" height="2.68586" transform="rotate(180 33.623 33.623)" fill="#83E0BA"/>
<rect x="6.66492" y="2.68591" width="23.6754" height="2.68586" fill="#83E0BA"/>
<rect x="31.4346" y="36.309" width="23.6754" height="2.68586" transform="rotate(180 31.4346 36.309)" fill="#83E0BA"/>
<rect x="12.1361" width="13.4293" height="2.68586" fill="#83E0BA"/>
<rect x="25.9633" y="38.9948" width="13.4293" height="2.68586" transform="rotate(180 25.9633 38.9948)" fill="#83E0BA"/>
<rect x="7" y="8" width="6.57143" height="6.35938" fill="white"/>
<rect x="7" y="15.8203" width="6.57143" height="6.35938" fill="white"/>
<rect x="7" y="23.6406" width="6.57143" height="6.35938" fill="white"/>
<rect x="15.2143" y="8" width="6.57143" height="6.35938" fill="white"/>
<rect x="15.2143" y="15.8203" width="6.57143" height="6.35938" fill="white"/>
<rect x="15.2143" y="23.6406" width="6.57143" height="6.35938" fill="white"/>
<rect x="23.4286" y="8" width="6.57143" height="6.35938" fill="white"/>
<rect x="23.4286" y="15.8203" width="6.57143" height="6.35938" fill="white"/>
<rect x="23.4286" y="23.6406" width="6.57143" height="6.35938" fill="white"/>
</svg>

