<svg width="30" height="30" viewBox="0 0 30 30" fill="none" xmlns="http://www.w3.org/2000/svg">
<rect x="3.5707" y="17.1979" width="22.4313" height="12.8021" fill="#101024"/>
<rect x="5.64598" y="15.0482" width="18.3418" height="2.14973" fill="#101024"/>
<rect x="7.66022" y="12.8984" width="14.3438" height="2.14973" fill="#101024"/>
<rect x="9.67447" y="10.7487" width="10.2238" height="2.14973" fill="#101024"/>
<rect x="11.6887" y="8.59894" width="6.19532" height="2.14973" fill="#101024"/>
<rect x="13.7029" y="6.44922" width="2.16684" height="2.14973" fill="#101024"/>
<rect y="17.1979" width="2.16684" height="2.14973" fill="#101024"/>
<rect x="1.86165" y="15.0482" width="2.16684" height="2.14973" fill="#101024"/>
<rect x="3.7233" y="12.8984" width="2.16684" height="2.14973" fill="#101024"/>
<rect x="5.58495" y="10.7487" width="2.16684" height="2.14973" fill="#101024"/>
<rect x="7.44659" y="8.59894" width="2.16684" height="2.14973" fill="#101024"/>
<rect x="9.30824" y="6.44922" width="2.16684" height="2.14973" fill="#101024"/>
<rect x="11.1699" y="4.2995" width="2.16684" height="2.14973" fill="#101024"/>
<rect x="13.3672" y="2.14972" width="2.16684" height="2.14973" fill="#101024"/>
<rect x="15.5036" y="4.2995" width="2.16684" height="2.14973" fill="#101024"/>
<rect x="17.6704" y="6.44922" width="2.16684" height="2.14973" fill="#101024"/>
<rect x="19.8372" y="8.59894" width="2.16684" height="2.14973" fill="#101024"/>
<rect x="22.0041" y="10.7487" width="2.16684" height="2.14973" fill="#101024"/>
<rect x="24.1709" y="12.8984" width="2.16684" height="2.14973" fill="#101024"/>
<rect x="26.3377" y="15.0482" width="2.16684" height="2.14973" fill="#101024"/>
<rect x="27.8332" y="17.1979" width="2.16684" height="2.14973" fill="#101024"/>
<rect y="15.0482" width="2.16684" height="2.14973" fill="#101024"/>
<rect x="1.86165" y="12.8984" width="2.16684" height="2.14973" fill="#101024"/>
<rect x="3.7233" y="10.7487" width="2.16684" height="2.14973" fill="#101024"/>
<rect x="5.58495" y="8.59894" width="2.16684" height="2.14973" fill="#101024"/>
<rect x="7.44659" y="6.44922" width="2.16684" height="2.14973" fill="#101024"/>
<rect x="9.30824" y="4.2995" width="2.16684" height="2.14973" fill="#101024"/>
<rect x="11.1699" y="2.14972" width="2.16684" height="2.14973" fill="#101024"/>
<rect x="13.3672" width="2.16684" height="2.14973" fill="#101024"/>
<rect x="15.5036" y="2.14972" width="2.16684" height="2.14973" fill="#101024"/>
<rect x="17.6704" y="4.2995" width="2.16684" height="2.14973" fill="#101024"/>
<rect x="19.8372" y="6.44922" width="2.16684" height="2.14973" fill="#101024"/>
<rect x="22.0041" y="8.59894" width="2.16684" height="2.14973" fill="#101024"/>
<rect x="24.1709" y="10.7487" width="2.16684" height="2.14973" fill="#101024"/>
<rect x="26.3377" y="12.8984" width="2.16684" height="2.14973" fill="#101024"/>
<rect x="27.8332" y="15.0482" width="2.16684" height="2.14973" fill="#101024"/>
<rect x="19.9288" y="19.1872" width="4.24212" height="4.42781" fill="white"/>
<rect x="19.9288" y="19.1872" width="4.24212" height="4.42781" fill="white"/>
<rect x="19.9288" y="19.1872" width="4.24212" height="4.42781" fill="white"/>
<rect x="11.6887" y="21.4011" width="6.19532" height="8.59894" fill="white"/>
<rect x="11.6887" y="21.4011" width="6.19532" height="8.59894" fill="white"/>
<rect x="11.6887" y="21.4011" width="6.19532" height="8.59894" fill="white"/>
<rect x="5.58495" y="19.1872" width="4.24212" height="4.42781" fill="white"/>
<rect x="5.58495" y="19.1872" width="4.24212" height="4.42781" fill="white"/>
<rect x="5.58495" y="19.1872" width="4.24212" height="4.42781" fill="white"/>
</svg>

