<svg width="38" height="39" viewBox="0 0 38 39" fill="none" xmlns="http://www.w3.org/2000/svg">
<rect y="12.932" width="38" height="13.1309" fill="#83E0BA"/>
<rect x="2.28796" y="8.05762" width="33.5236" height="4.87435" fill="#83E0BA"/>
<rect x="35.8115" y="30.9373" width="33.5236" height="4.87435" transform="rotate(180 35.8115 30.9373)" fill="#83E0BA"/>
<rect x="4.47644" y="5.3717" width="28.2513" height="2.68586" fill="#83E0BA"/>
<rect x="33.623" y="33.623" width="28.2513" height="2.68586" transform="rotate(180 33.623 33.623)" fill="#83E0BA"/>
<rect x="6.66492" y="2.68591" width="23.6754" height="2.68586" fill="#83E0BA"/>
<rect x="31.4346" y="36.309" width="23.6754" height="2.68586" transform="rotate(180 31.4346 36.309)" fill="#83E0BA"/>
<rect x="12.1361" width="13.4293" height="2.68586" fill="#83E0BA"/>
<rect x="25.9633" y="38.9948" width="13.4293" height="2.68586" transform="rotate(180 25.9633 38.9948)" fill="#83E0BA"/>
<rect x="9.85657" y="19.7583" width="17.9451" height="10.2417" fill="white"/>
<rect x="11.5168" y="18.0385" width="14.6734" height="1.71979" fill="white"/>
<rect x="13.1282" y="16.3187" width="11.4751" height="1.71979" fill="white"/>
<rect x="14.7396" y="14.5989" width="8.17904" height="1.71979" fill="white"/>
<rect x="16.351" y="12.8792" width="4.95626" height="1.71979" fill="white"/>
<rect x="17.9624" y="11.1594" width="1.73347" height="1.71979" fill="white"/>
<rect x="7" y="19.7583" width="1.73347" height="1.71979" fill="white"/>
<rect x="8.48932" y="18.0385" width="1.73347" height="1.71979" fill="white"/>
<rect x="9.97864" y="16.3187" width="1.73347" height="1.71979" fill="white"/>
<rect x="11.468" y="14.5989" width="1.73347" height="1.71979" fill="white"/>
<rect x="12.9573" y="12.8792" width="1.73347" height="1.71979" fill="white"/>
<rect x="14.4466" y="11.1594" width="1.73347" height="1.71979" fill="white"/>
<rect x="15.9359" y="9.4397" width="1.73347" height="1.71979" fill="white"/>
<rect x="17.6938" y="7.71973" width="1.73347" height="1.71979" fill="white"/>
<rect x="19.4028" y="9.4397" width="1.73347" height="1.71979" fill="white"/>
<rect x="21.1363" y="11.1594" width="1.73347" height="1.71979" fill="white"/>
<rect x="22.8698" y="12.8792" width="1.73347" height="1.71979" fill="white"/>
<rect x="24.6033" y="14.5989" width="1.73347" height="1.71979" fill="white"/>
<rect x="26.3367" y="16.3187" width="1.73347" height="1.71979" fill="white"/>
<rect x="28.0702" y="18.0385" width="1.73347" height="1.71979" fill="white"/>
<rect x="29.2665" y="19.7583" width="1.73347" height="1.71979" fill="white"/>
<rect x="7" y="18.0385" width="1.73347" height="1.71979" fill="white"/>
<rect x="8.48932" y="16.3187" width="1.73347" height="1.71979" fill="white"/>
<rect x="9.97864" y="14.5989" width="1.73347" height="1.71979" fill="white"/>
<rect x="11.468" y="12.8792" width="1.73347" height="1.71979" fill="white"/>
<rect x="12.9573" y="11.1594" width="1.73347" height="1.71979" fill="white"/>
<rect x="14.4466" y="9.4397" width="1.73347" height="1.71979" fill="white"/>
<rect x="15.9359" y="7.71973" width="1.73347" height="1.71979" fill="white"/>
<rect x="17.6938" y="6" width="1.73347" height="1.71979" fill="white"/>
<rect x="19.4028" y="7.71973" width="1.73347" height="1.71979" fill="white"/>
<rect x="21.1363" y="9.4397" width="1.73347" height="1.71979" fill="white"/>
<rect x="22.8698" y="11.1594" width="1.73347" height="1.71979" fill="white"/>
<rect x="24.6033" y="12.8792" width="1.73347" height="1.71979" fill="white"/>
<rect x="26.3367" y="14.5989" width="1.73347" height="1.71979" fill="white"/>
<rect x="28.0702" y="16.3187" width="1.73347" height="1.71979" fill="white"/>
<rect x="29.2665" y="18.0385" width="1.73347" height="1.71979" fill="white"/>
<rect x="22.943" y="21.3499" width="3.39369" height="3.54225" fill="white"/>
<rect x="22.943" y="21.3499" width="3.39369" height="3.54225" fill="white"/>
<rect x="22.943" y="21.3499" width="3.39369" height="3.54225" fill="#83E0BA"/>
<rect x="16.351" y="23.1208" width="4.95626" height="6.87915" fill="white"/>
<rect x="16.351" y="23.1208" width="4.95626" height="6.87915" fill="white"/>
<rect x="16.351" y="23.1208" width="4.95626" height="6.87915" fill="#83E0BA"/>
<rect x="11.468" y="21.3499" width="3.39369" height="3.54225" fill="white"/>
<rect x="11.468" y="21.3499" width="3.39369" height="3.54225" fill="white"/>
<rect x="11.468" y="21.3499" width="3.39369" height="3.54225" fill="#83E0BA"/>
</svg>

