<svg width="38" height="39" viewBox="0 0 38 39" fill="none" xmlns="http://www.w3.org/2000/svg">
<rect y="12.932" width="38" height="13.1309" fill="#83E0BA"/>
<rect x="2.28796" y="8.05762" width="33.5236" height="4.87435" fill="#83E0BA"/>
<rect x="35.8115" y="30.9373" width="33.5236" height="4.87435" transform="rotate(180 35.8115 30.9373)" fill="#83E0BA"/>
<rect x="4.47644" y="5.3717" width="28.2513" height="2.68586" fill="#83E0BA"/>
<rect x="33.623" y="33.623" width="28.2513" height="2.68586" transform="rotate(180 33.623 33.623)" fill="#83E0BA"/>
<rect x="6.66492" y="2.68591" width="23.6754" height="2.68586" fill="#83E0BA"/>
<rect x="31.4346" y="36.309" width="23.6754" height="2.68586" transform="rotate(180 31.4346 36.309)" fill="#83E0BA"/>
<rect x="12.1361" width="13.4293" height="2.68586" fill="#83E0BA"/>
<rect x="25.9633" y="38.9948" width="13.4293" height="2.68586" transform="rotate(180 25.9633 38.9948)" fill="#83E0BA"/>
<rect width="1.97492" height="1.92167" transform="matrix(-1 0 0 1 17.4483 8.92175)" fill="white"/>
<rect width="1.97492" height="1.92167" transform="matrix(-1 0 0 1 17.4483 8.92175)" fill="white"/>
<rect width="1.97492" height="1.92167" transform="matrix(-1 0 0 1 17.4483 8.92175)" fill="white"/>
<rect width="1.97492" height="1.92167" transform="matrix(-1 0 0 1 17.4483 8.92175)" fill="white"/>
<rect width="1.97492" height="1.92167" transform="matrix(-1 0 0 1 17.4483 14.7467)" fill="white"/>
<rect width="1.97492" height="1.92167" transform="matrix(-1 0 0 1 17.4483 14.7467)" fill="white"/>
<rect width="1.97492" height="1.92167" transform="matrix(-1 0 0 1 17.4483 14.7467)" fill="white"/>
<rect width="1.97492" height="1.92167" transform="matrix(-1 0 0 1 17.4483 14.7467)" fill="white"/>
<rect width="1.97492" height="3.9034" transform="matrix(-1 0 0 1 15.4734 10.8433)" fill="white"/>
<rect width="1.97492" height="3.9034" transform="matrix(-1 0 0 1 15.4734 10.8433)" fill="white"/>
<rect width="1.97492" height="3.9034" transform="matrix(-1 0 0 1 15.4734 10.8433)" fill="white"/>
<rect width="1.97492" height="3.9034" transform="matrix(-1 0 0 1 15.4734 10.8433)" fill="white"/>
<rect width="1.97492" height="3.9034" transform="matrix(-1 0 0 1 24.7273 10.8433)" fill="white"/>
<rect width="1.97492" height="3.9034" transform="matrix(-1 0 0 1 24.7273 10.8433)" fill="white"/>
<rect width="1.97492" height="3.9034" transform="matrix(-1 0 0 1 24.7273 10.8433)" fill="white"/>
<rect width="1.97492" height="3.9034" transform="matrix(-1 0 0 1 24.7273 10.8433)" fill="white"/>
<rect width="1.97492" height="1.92167" transform="matrix(-1 0 0 1 22.7523 8.92175)" fill="white"/>
<rect width="1.97492" height="1.92167" transform="matrix(-1 0 0 1 22.7523 8.92175)" fill="white"/>
<rect width="1.97492" height="1.92167" transform="matrix(-1 0 0 1 22.7523 8.92175)" fill="white"/>
<rect width="1.97492" height="1.92167" transform="matrix(-1 0 0 1 22.7523 8.92175)" fill="white"/>
<rect width="3.32915" height="1.92167" transform="matrix(-1 0 0 1 20.7774 7)" fill="white"/>
<rect width="3.32915" height="1.92167" transform="matrix(-1 0 0 1 20.7774 7)" fill="white"/>
<rect width="3.32915" height="1.92167" transform="matrix(-1 0 0 1 20.7774 7)" fill="white"/>
<rect width="3.32915" height="1.92167" transform="matrix(-1 0 0 1 20.7774 7)" fill="white"/>
<rect width="3.61129" height="1.92167" transform="matrix(-1 0 0 1 21.0596 16.6083)" fill="white"/>
<rect width="3.61129" height="1.92167" transform="matrix(-1 0 0 1 21.0596 16.6083)" fill="white"/>
<rect width="3.61129" height="1.92167" transform="matrix(-1 0 0 1 21.0596 16.6083)" fill="white"/>
<rect width="3.61129" height="1.92167" transform="matrix(-1 0 0 1 21.0596 16.6083)" fill="white"/>
<rect width="7.279" height="1.92167" transform="matrix(-1 0 0 1 22.7523 18.53)" fill="white"/>
<rect width="7.279" height="1.92167" transform="matrix(-1 0 0 1 22.7523 18.53)" fill="white"/>
<rect width="7.279" height="1.92167" transform="matrix(-1 0 0 1 22.7523 18.53)" fill="white"/>
<rect width="7.279" height="1.92167" transform="matrix(-1 0 0 1 22.7523 18.53)" fill="white"/>
<rect width="14.0502" height="1.92167" transform="matrix(-1 0 0 1 26.0251 28.0782)" fill="white"/>
<rect width="14.0502" height="1.92167" transform="matrix(-1 0 0 1 26.0251 28.0782)" fill="white"/>
<rect width="14.0502" height="1.92167" transform="matrix(-1 0 0 1 26.0251 28.0782)" fill="white"/>
<rect width="14.0502" height="1.92167" transform="matrix(-1 0 0 1 26.0251 28.0782)" fill="white"/>
<rect width="1.97492" height="1.92167" transform="matrix(-1 0 0 1 22.7523 14.7467)" fill="white"/>
<rect width="1.97492" height="1.92167" transform="matrix(-1 0 0 1 22.7523 14.7467)" fill="white"/>
<rect width="1.97492" height="1.92167" transform="matrix(-1 0 0 1 22.7523 14.7467)" fill="white"/>
<rect width="1.97492" height="1.92167" transform="matrix(-1 0 0 1 22.7523 14.7467)" fill="white"/>
<rect width="1.97492" height="1.92167" transform="matrix(-1 0 0 1 24.7273 20.4517)" fill="white"/>
<rect width="1.97492" height="1.92167" transform="matrix(-1 0 0 1 24.7273 20.4517)" fill="white"/>
<rect width="1.97492" height="1.92167" transform="matrix(-1 0 0 1 24.7273 20.4517)" fill="white"/>
<rect width="1.97492" height="1.92167" transform="matrix(-1 0 0 1 24.7273 20.4517)" fill="white"/>
<rect width="1.97492" height="1.92167" transform="matrix(-1 0 0 1 26.3636 22.3734)" fill="white"/>
<rect width="1.97492" height="1.92167" transform="matrix(-1 0 0 1 26.3636 22.3734)" fill="white"/>
<rect width="1.97492" height="1.92167" transform="matrix(-1 0 0 1 26.3636 22.3734)" fill="white"/>
<rect width="1.97492" height="1.92167" transform="matrix(-1 0 0 1 26.3636 22.3734)" fill="white"/>
<rect width="1.97492" height="1.92167" transform="matrix(-1 0 0 1 13.9498 22.3734)" fill="white"/>
<rect width="1.97492" height="1.92167" transform="matrix(-1 0 0 1 13.9498 22.3734)" fill="white"/>
<rect width="1.97492" height="1.92167" transform="matrix(-1 0 0 1 13.9498 22.3734)" fill="white"/>
<rect width="1.97492" height="1.92167" transform="matrix(-1 0 0 1 13.9498 22.3734)" fill="white"/>
<rect width="1.97492" height="1.92167" transform="matrix(-1 0 0 1 15.4734 20.4517)" fill="white"/>
<rect width="1.97492" height="1.92167" transform="matrix(-1 0 0 1 15.4734 20.4517)" fill="white"/>
<rect width="1.97492" height="1.92167" transform="matrix(-1 0 0 1 15.4734 20.4517)" fill="white"/>
<rect width="1.97492" height="1.92167" transform="matrix(-1 0 0 1 15.4734 20.4517)" fill="white"/>
<rect width="1.97492" height="5.70496" transform="matrix(-1 0 0 1 28 24.295)" fill="white"/>
<rect width="1.97492" height="5.70496" transform="matrix(-1 0 0 1 28 24.295)" fill="white"/>
<rect width="1.97492" height="5.70496" transform="matrix(-1 0 0 1 28 24.295)" fill="white"/>
<rect width="1.97492" height="5.70496" transform="matrix(-1 0 0 1 28 24.295)" fill="white"/>
<rect width="1.97492" height="5.70496" transform="matrix(-1 0 0 1 11.9749 24.295)" fill="white"/>
<rect width="1.97492" height="5.70496" transform="matrix(-1 0 0 1 11.9749 24.295)" fill="white"/>
<rect width="1.97492" height="5.70496" transform="matrix(-1 0 0 1 11.9749 24.295)" fill="white"/>
<rect width="1.97492" height="5.70496" transform="matrix(-1 0 0 1 11.9749 24.295)" fill="white"/>
</svg>

