<svg width="25" height="30" viewBox="0 0 25 30" fill="none" xmlns="http://www.w3.org/2000/svg">
<rect width="2.74295" height="2.50653" transform="matrix(-1 0 0 1 10.3448 2.50659)" fill="#101024"/>
<rect width="2.74295" height="2.50653" transform="matrix(-1 0 0 1 10.3448 2.50659)" fill="#101024"/>
<rect width="2.74295" height="2.50653" transform="matrix(-1 0 0 1 10.3448 2.50659)" fill="#101024"/>
<rect width="2.74295" height="2.50653" transform="matrix(-1 0 0 1 10.3448 2.50659)" fill="#101024"/>
<rect width="2.74295" height="2.50653" transform="matrix(-1 0 0 1 10.3448 10.1044)" fill="#101024"/>
<rect width="2.74295" height="2.50653" transform="matrix(-1 0 0 1 10.3448 10.1044)" fill="#101024"/>
<rect width="2.74295" height="2.50653" transform="matrix(-1 0 0 1 10.3448 10.1044)" fill="#101024"/>
<rect width="2.74295" height="2.50653" transform="matrix(-1 0 0 1 10.3448 10.1044)" fill="#101024"/>
<rect width="2.74295" height="5.09139" transform="matrix(-1 0 0 1 7.60187 5.013)" fill="#101024"/>
<rect width="2.74295" height="5.09139" transform="matrix(-1 0 0 1 7.60187 5.013)" fill="#101024"/>
<rect width="2.74295" height="5.09139" transform="matrix(-1 0 0 1 7.60187 5.013)" fill="#101024"/>
<rect width="2.74295" height="5.09139" transform="matrix(-1 0 0 1 7.60187 5.013)" fill="#101024"/>
<rect width="2.74295" height="5.09139" transform="matrix(-1 0 0 1 20.4545 5.013)" fill="#101024"/>
<rect width="2.74295" height="5.09139" transform="matrix(-1 0 0 1 20.4545 5.013)" fill="#101024"/>
<rect width="2.74295" height="5.09139" transform="matrix(-1 0 0 1 20.4545 5.013)" fill="#101024"/>
<rect width="2.74295" height="5.09139" transform="matrix(-1 0 0 1 20.4545 5.013)" fill="#101024"/>
<rect width="2.74295" height="2.50653" transform="matrix(-1 0 0 1 17.7116 2.50659)" fill="#101024"/>
<rect width="2.74295" height="2.50653" transform="matrix(-1 0 0 1 17.7116 2.50659)" fill="#101024"/>
<rect width="2.74295" height="2.50653" transform="matrix(-1 0 0 1 17.7116 2.50659)" fill="#101024"/>
<rect width="2.74295" height="2.50653" transform="matrix(-1 0 0 1 17.7116 2.50659)" fill="#101024"/>
<rect width="4.62383" height="2.50653" transform="matrix(-1 0 0 1 14.9687 0)" fill="#101024"/>
<rect width="4.62383" height="2.50653" transform="matrix(-1 0 0 1 14.9687 0)" fill="#101024"/>
<rect width="4.62383" height="2.50653" transform="matrix(-1 0 0 1 14.9687 0)" fill="#101024"/>
<rect width="4.62383" height="2.50653" transform="matrix(-1 0 0 1 14.9687 0)" fill="#101024"/>
<rect width="5.01568" height="2.50653" transform="matrix(-1 0 0 1 15.3605 12.5327)" fill="#101024"/>
<rect width="5.01568" height="2.50653" transform="matrix(-1 0 0 1 15.3605 12.5327)" fill="#101024"/>
<rect width="5.01568" height="2.50653" transform="matrix(-1 0 0 1 15.3605 12.5327)" fill="#101024"/>
<rect width="5.01568" height="2.50653" transform="matrix(-1 0 0 1 15.3605 12.5327)" fill="#101024"/>
<rect width="10.1097" height="2.50653" transform="matrix(-1 0 0 1 17.7116 15.0391)" fill="#101024"/>
<rect width="10.1097" height="2.50653" transform="matrix(-1 0 0 1 17.7116 15.0391)" fill="#101024"/>
<rect width="10.1097" height="2.50653" transform="matrix(-1 0 0 1 17.7116 15.0391)" fill="#101024"/>
<rect width="10.1097" height="2.50653" transform="matrix(-1 0 0 1 17.7116 15.0391)" fill="#101024"/>
<rect width="19.5141" height="2.50653" transform="matrix(-1 0 0 1 22.257 27.4934)" fill="#101024"/>
<rect width="19.5141" height="2.50653" transform="matrix(-1 0 0 1 22.257 27.4934)" fill="#101024"/>
<rect width="19.5141" height="2.50653" transform="matrix(-1 0 0 1 22.257 27.4934)" fill="#101024"/>
<rect width="19.5141" height="2.50653" transform="matrix(-1 0 0 1 22.257 27.4934)" fill="#101024"/>
<rect width="2.74295" height="2.50653" transform="matrix(-1 0 0 1 17.7116 10.1044)" fill="#101024"/>
<rect width="2.74295" height="2.50653" transform="matrix(-1 0 0 1 17.7116 10.1044)" fill="#101024"/>
<rect width="2.74295" height="2.50653" transform="matrix(-1 0 0 1 17.7116 10.1044)" fill="#101024"/>
<rect width="2.74295" height="2.50653" transform="matrix(-1 0 0 1 17.7116 10.1044)" fill="#101024"/>
<rect width="2.74295" height="2.50653" transform="matrix(-1 0 0 1 20.4545 17.5457)" fill="#101024"/>
<rect width="2.74295" height="2.50653" transform="matrix(-1 0 0 1 20.4545 17.5457)" fill="#101024"/>
<rect width="2.74295" height="2.50653" transform="matrix(-1 0 0 1 20.4545 17.5457)" fill="#101024"/>
<rect width="2.74295" height="2.50653" transform="matrix(-1 0 0 1 20.4545 17.5457)" fill="#101024"/>
<rect width="2.74295" height="2.50653" transform="matrix(-1 0 0 1 22.7273 20.0522)" fill="#101024"/>
<rect width="2.74295" height="2.50653" transform="matrix(-1 0 0 1 22.7273 20.0522)" fill="#101024"/>
<rect width="2.74295" height="2.50653" transform="matrix(-1 0 0 1 22.7273 20.0522)" fill="#101024"/>
<rect width="2.74295" height="2.50653" transform="matrix(-1 0 0 1 22.7273 20.0522)" fill="#101024"/>
<rect width="2.74295" height="2.50653" transform="matrix(-1 0 0 1 5.48587 20.0522)" fill="#101024"/>
<rect width="2.74295" height="2.50653" transform="matrix(-1 0 0 1 5.48587 20.0522)" fill="#101024"/>
<rect width="2.74295" height="2.50653" transform="matrix(-1 0 0 1 5.48587 20.0522)" fill="#101024"/>
<rect width="2.74295" height="2.50653" transform="matrix(-1 0 0 1 5.48587 20.0522)" fill="#101024"/>
<rect width="2.74295" height="2.50653" transform="matrix(-1 0 0 1 7.60187 17.5457)" fill="#101024"/>
<rect width="2.74295" height="2.50653" transform="matrix(-1 0 0 1 7.60187 17.5457)" fill="#101024"/>
<rect width="2.74295" height="2.50653" transform="matrix(-1 0 0 1 7.60187 17.5457)" fill="#101024"/>
<rect width="2.74295" height="2.50653" transform="matrix(-1 0 0 1 7.60187 17.5457)" fill="#101024"/>
<rect width="2.74295" height="7.44126" transform="matrix(-1 0 0 1 25 22.5588)" fill="#101024"/>
<rect width="2.74295" height="7.44126" transform="matrix(-1 0 0 1 25 22.5588)" fill="#101024"/>
<rect width="2.74295" height="7.44126" transform="matrix(-1 0 0 1 25 22.5588)" fill="#101024"/>
<rect width="2.74295" height="7.44126" transform="matrix(-1 0 0 1 25 22.5588)" fill="#101024"/>
<rect width="2.74295" height="7.44126" transform="matrix(-1 0 0 1 2.74294 22.5588)" fill="#101024"/>
<rect width="2.74295" height="7.44126" transform="matrix(-1 0 0 1 2.74294 22.5588)" fill="#101024"/>
<rect width="2.74295" height="7.44126" transform="matrix(-1 0 0 1 2.74294 22.5588)" fill="#101024"/>
<rect width="2.74295" height="7.44126" transform="matrix(-1 0 0 1 2.74294 22.5588)" fill="#101024"/>
</svg>

