<svg width="30" height="30" viewBox="0 0 30 30" fill="none" xmlns="http://www.w3.org/2000/svg">
<rect x="5.9633" width="10.2752" height="2.09726" fill="black"/>
<rect x="16.2385" y="2.09723" width="2.29358" height="2.09726" fill="black"/>
<rect x="4.0367" y="2.09723" width="2.29358" height="2.09726" fill="black"/>
<rect x="2.11009" y="4.10333" width="2.29358" height="2.09726" fill="black"/>
<rect x="2.11009" y="15.7751" width="2.29358" height="2.09726" fill="black"/>
<rect x="4.0367" y="17.6899" width="2.29358" height="2.09726" fill="black"/>
<rect x="17.9817" y="15.7751" width="2.29358" height="2.09726" fill="black"/>
<rect x="19.9083" y="19.7872" width="2.29358" height="2.09726" fill="black"/>
<rect x="19.9083" y="21.7933" width="2.29358" height="2.09726" fill="black"/>
<rect x="21.7431" y="23.8906" width="2.29358" height="2.09726" fill="black"/>
<rect x="23.578" y="25.9878" width="2.29358" height="2.09726" fill="black"/>
<rect x="22.2018" y="19.7872" width="2.29358" height="2.09726" fill="black"/>
<rect x="22.2018" y="21.7933" width="2.29358" height="2.09726" fill="black"/>
<rect x="24.0367" y="23.8906" width="2.29358" height="2.09726" fill="black"/>
<rect x="25.8716" y="25.9878" width="2.29358" height="2.09726" fill="black"/>
<rect x="25.8716" y="27.9027" width="2.29358" height="2.09726" fill="black"/>
<rect x="24.0367" y="21.7933" width="2.29358" height="2.09726" fill="black"/>
<rect x="25.8716" y="23.8906" width="2.29358" height="2.09726" fill="black"/>
<rect x="27.7064" y="25.9878" width="2.29358" height="2.09726" fill="black"/>
<rect x="27.7064" y="27.9027" width="2.29358" height="2.09726" fill="black"/>
<rect x="15.7798" y="17.7811" width="4.49541" height="2.09726" fill="black"/>
<rect x="5.9633" y="19.7872" width="2.29358" height="2.09726" fill="black"/>
<rect x="6.14679" y="6.10944" width="2.29358" height="2.09726" fill="black"/>
<rect x="4.0367" y="8.02429" width="2.29358" height="5.92705" fill="black"/>
<rect x="7.98165" y="4.01221" width="6.42202" height="2.09726" fill="black"/>
<rect y="6.10944" width="2.29358" height="9.84802" fill="black"/>
<rect x="18.0734" y="4.10333" width="2.29358" height="2.09726" fill="black"/>
<rect x="20.2752" y="6.10944" width="1.92661" height="9.75683" fill="black"/>
<rect x="5.9633" y="19.8784" width="10.2752" height="2.09726" fill="black"/>
</svg>

