<svg width="38" height="39" viewBox="0 0 38 39" fill="none" xmlns="http://www.w3.org/2000/svg">
<rect y="12.932" width="38" height="13.1309" fill="#83E0BA"/>
<rect x="2.28796" y="8.05762" width="33.5236" height="4.87435" fill="#83E0BA"/>
<rect x="35.8115" y="30.9373" width="33.5236" height="4.87435" transform="rotate(180 35.8115 30.9373)" fill="#83E0BA"/>
<rect x="4.47644" y="5.3717" width="28.2513" height="2.68586" fill="#83E0BA"/>
<rect x="33.623" y="33.623" width="28.2513" height="2.68586" transform="rotate(180 33.623 33.623)" fill="#83E0BA"/>
<rect x="6.66492" y="2.68591" width="23.6754" height="2.68586" fill="#83E0BA"/>
<rect x="31.4346" y="36.309" width="23.6754" height="2.68586" transform="rotate(180 31.4346 36.309)" fill="#83E0BA"/>
<rect x="12.1361" width="13.4293" height="2.68586" fill="#83E0BA"/>
<rect x="25.9633" y="38.9948" width="13.4293" height="2.68586" transform="rotate(180 25.9633 38.9948)" fill="#83E0BA"/>
<rect x="11.5719" y="8" width="7.87768" height="1.6079" fill="white"/>
<rect x="19.4495" y="9.60791" width="1.75841" height="1.6079" fill="white"/>
<rect x="10.0948" y="9.60791" width="1.75841" height="1.6079" fill="white"/>
<rect x="8.61774" y="11.146" width="1.75841" height="1.6079" fill="white"/>
<rect x="8.61774" y="20.0942" width="1.75841" height="1.6079" fill="white"/>
<rect x="10.0948" y="21.5623" width="1.75841" height="1.6079" fill="white"/>
<rect x="20.7859" y="20.0942" width="1.75841" height="1.6079" fill="white"/>
<rect x="22.263" y="23.1702" width="1.75841" height="1.6079" fill="white"/>
<rect x="22.263" y="24.7083" width="1.75841" height="1.6079" fill="white"/>
<rect x="23.6697" y="26.316" width="1.75841" height="1.6079" fill="white"/>
<rect x="25.0765" y="27.924" width="1.75841" height="1.6079" fill="white"/>
<rect x="24.0214" y="23.1702" width="1.75841" height="1.6079" fill="white"/>
<rect x="24.0214" y="24.7083" width="1.75841" height="1.6079" fill="white"/>
<rect x="25.4281" y="26.316" width="1.75841" height="1.6079" fill="white"/>
<rect x="26.8349" y="27.924" width="1.75841" height="1.6079" fill="white"/>
<rect x="26.8349" y="29.3921" width="1.75841" height="1.6079" fill="white"/>
<rect x="25.4281" y="24.7083" width="1.75841" height="1.6079" fill="white"/>
<rect x="26.8349" y="26.316" width="1.75841" height="1.6079" fill="white"/>
<rect x="28.2416" y="27.924" width="1.75841" height="1.6079" fill="white"/>
<rect x="28.2416" y="29.3921" width="1.75841" height="1.6079" fill="white"/>
<rect x="19.0979" y="21.6322" width="3.44648" height="1.6079" fill="white"/>
<rect x="11.5719" y="23.1702" width="1.75841" height="1.6079" fill="white"/>
<rect x="11.7125" y="12.6838" width="1.75841" height="1.6079" fill="white"/>
<rect x="10.0948" y="14.152" width="1.75841" height="4.54407" fill="white"/>
<rect x="13.1193" y="11.076" width="4.92355" height="1.6079" fill="white"/>
<rect x="7" y="12.6838" width="1.75841" height="7.55015" fill="white"/>
<rect x="20.8563" y="11.146" width="1.75841" height="1.6079" fill="white"/>
<rect x="22.5443" y="12.6838" width="1.47706" height="7.48024" fill="white"/>
<rect x="11.5719" y="23.2401" width="7.87768" height="1.6079" fill="white"/>
</svg>

